<?xml version="1.0" standalone="no"?>
<!DOCTYPE svg PUBLIC "-//W3C//DTD SVG 1.1//EN" "http://www.w3.org/Graphics/SVG/1.1/DTD/svg11.dtd" >
<!--
2013-9-30: Created.
-->
<svg>
<metadata>
Created by iconfont
</metadata>
<defs>

<font id="iconfont" horiz-adv-x="1024" >
  <font-face
    font-family="iconfont"
    font-weight="500"
    font-stretch="normal"
    units-per-em="1024"
    ascent="896"
    descent="-128"
  />
    <missing-glyph />
    
    <glyph glyph-name="pdf" unicode="&#59104;" d="M624.50026667 54v-150l180 180h-150c-16.56 0-30-13.44-30-30zM864.50026667 864h-626.2496c-24.83946667 0-45.00053333-20.14506667-45.00053334-45.00053333h626.2496c16.57493333 0 30-13.42506667 30-30v-625.93493334c24.74986667 0 44.7904 19.97973333 44.9696 44.6848h0.02986667v626.2496c0 16.57493333-13.42506667 30-30 30zM285.70986667 275.09973333000005c0.5248-0.8096 5.09973333-3.81013333 12.90026666-3.81013333 5.41546667 0 11.1296 1.44 16.5152 4.13973333 5.01013333 2.51946667 14.6848 9.22453333 31.22986667 26.9696-9.06026667-2.37013333-17.6704-4.8-25.68-7.2448-28.02026667-8.5952-34.7104-18-34.96533333-20.05546666zM476.85546667 430.1696l-0.49493334-0.8704-0.25493333 0.48c-16.05013333-26.26453333-34.77013333-54.3296-53.14453333-79.73973333l1.3504 0.2848-0.7648-0.96c34.18453333 5.68533333 67.78453333 9.47946667 97.75466666 11.05493333l-0.7648 0.93013333h1.06453334c-16.44053333 22.1696-31.93493333 46.02026667-44.74453334 68.82026667zM487.09973333 515.5648c11.1296 43.66506667-1.36533333 69.12-6.83946666 71.2352-0.85546667-1.03466667-9.57013333-12.36053333-10.92053334-47.63946667-0.31466667-8.3552 1.38026667-22.08 9.43466667-43.51466666 6.0448 12.31466667 7.84533333 18.01493333 8.32533333 19.92zM633.86026667 316.06506666999996c-5.74506667 4.1248-18.66026667 10.32-46.37973334 13.3504 6.66026667-6.7648 12.77973333-12.25493333 18-16.1696 23.9104-17.83466667 36.3296-19.7696 40.56-19.7696 1.54453333 0 2.34026667 0.25493333 2.53546667 0.35946666 0.58453333 1.78453333-1.7696 12.93013333-14.71466667 22.2304zM774.50026667 774h-615.00053334c-16.56 0-30-13.42506667-30-30v-810c0-16.56 13.44-30 30-30h435.00053334v180c0 16.56 13.44 30 30 30h180v630c0 16.57493333-13.44 30-30 30zM676.69973333 284.23466667c-4.1696-12.98986667-15.6448-20.74453333-30.66026666-20.74453334-15.94453333 0-35.64053333 8.65493333-58.5152 25.7248-14.47466667 10.81493333-30.21013333 27.8848-42.11946667 41.9552-42.73493333-0.48-96.74986667-6.77973333-149.98506667-17.50506666-27.86986667-34.87466667-50.32533333-56.74453333-66.79466666-65.04-9.5552-4.8-19.93493333-7.3504-30.01493334-7.3504-22.4704 0-39.97546667 12.16533333-42.58453333 29.57973333-1.92 12.8096 2.7904 36.70506667 55.86026667 52.96533333 19.60533333 6 42.58453333 11.86453333 66.74986666 16.9952 27.5552 35.49013333 58.8 81.78026667 81.81013334 121.17013334-14.76053333 31.75466667-21.85493333 58.06506667-21.0752 78.2848 2.64 68.9696 29.87946667 76.4096 41.49013333 76.4096 9.58506667 0 18.74986667-4.9952 25.80053333-14.0704 12.22506667-15.73546667 21.14986667-48.83946667 9.5104-94.50026667-2.51946667-9.91466667-9.84-25.7696-21.7952-47.22026667 16.6048-32.41493333 40.4096-68.82026667 65.25013334-99.7952 42.93013333-0.82453333 73.78453333-7.78453333 91.75466666-20.69973333 20.76053333-14.89493333 31.17013333-37.99466667 25.32053334-56.16z"  horiz-adv-x="1024" />

    
    <glyph glyph-name="download" unicode="&#58905;" d="M959.294302 93.85789999999997l0-29.91431c0-66.158792-53.508681-119.786177-119.55491-119.786177L182.351118-55.84258699999998c-66.053392 0-119.55798 53.628408-119.55798 119.786177L62.793138 213.64817100000005c0 16.530488 13.398148 29.958312 29.887704 29.958312s29.887704-13.428847 29.887704-29.958312l0-149.70458c0-33.056883 26.801413-59.913555 59.782571-59.913555L839.739393 4.0300359999999955c32.982182 0 59.775408 26.856671 59.775408 59.913555L899.514801 213.64817100000005c0 16.530488 13.354146 29.958312 29.887704 29.958312 16.492626 0 29.891797-13.428847 29.891797-29.958312L959.294302 93.85789999999997 959.294302 93.85789999999997 959.294302 93.85789999999997 959.294302 93.85789999999997zM849.238744 579.10663l-308.309878-308.874743L540.928866 797.170111c0 16.530488-13.398148 29.958312-29.887704 29.958312s-29.887704-13.428847-29.887704-29.958312l0-525.145391L172.847673 580.9066250000001c-11.692297 11.721973-30.606065 11.721973-42.257429 0-11.647271-11.676947-11.692297-30.677697 0-42.309618l356.209818-356.942505c0.939395-1.339508 1.571798-2.825348 2.735297-3.991917 0.135076-0.314155 0.135076-0.722454 0.400113-0.942465 0.408299-0.408299 0.98749-0.224104 1.388627-0.587378 4.841262-4.355191 11.07115-7.052626 17.971303-7.497765 1.257643-0.090051 2.245134-0.090051 3.449565 0 6.948249 0.400113 13.174044 3.094478 18.015306 7.497765 0.404206 0.363274 0.98749 0.179079 1.388627 0.587378l359.348298 360.122941c11.651364 11.676947 11.651364 30.680766 0 42.309618C879.800807 590.7846 860.845083 590.7846 849.238744 579.10663L849.238744 579.10663 849.238744 579.10663zM849.238744 579.10663"  horiz-adv-x="1024" />

    
    <glyph glyph-name="password" unicode="&#59026;" d="M500.363636 290.909091l23.272727 0C542.906182 290.909091 558.545455 275.269818 558.545455 256l0-162.909091c0-19.269818-15.639273-34.909091-34.932364-34.909091l-23.272727 0c-19.293091 0-34.909091 15.639273-34.909091 34.909091l0 162.909091C465.454545 275.269818 481.070545 290.909091 500.363636 290.909091zM884.363636 407.272727l0-419.746909C884.363636-37.678544999999986 863.511273-58.18181800000002 837.818182-58.18181800000002L186.181818-58.18181800000002c-25.669818 0-46.545455 20.503273-46.545455 45.707636L139.636364 407.272727 884.363636 407.272727M954.181818 477.090909L69.818182 477.090909l0-489.565091C69.818182-76.28800000000001 121.902545-128 186.181818-128l651.636364 0c64.279273 0 116.363636 51.712 116.363636 115.525818L954.181818 477.090909 954.181818 477.090909zM861.090909 477.090909l-69.818182 0 0 69.818182c0 156.997818-131.095273 279.272727-279.272727 279.272727-151.831273 0-279.272727-127.418182-279.272727-279.272727l0-69.818182L162.909091 477.090909l0 69.818182C162.909091 737.256727 321.652364 896 512 896c187.950545 0 349.090909-152.273455 349.090909-349.090909L861.090909 477.090909z"  horiz-adv-x="1024" />

    
    <glyph glyph-name="user" unicode="&#58881;" d="M640.845663 323.284854c79.569978 46.115476 133.09603 132.190921 133.09603 230.77585 0 147.209588-119.337228 266.546816-266.545858 266.546816-147.209588 0-266.546816-119.337228-266.546816-266.546816 0-100.186127 55.284494-187.446652 137.00027-232.983011C243.386966 267.62834499999997 148.326592 136.32815000000005 148.326592-17.177888000000053c0-19.990052 16.204704-36.194757 36.194757-36.194757s36.194757 16.204704 36.194757 36.194757l0.004794 0c0.194637 160.943461 130.721079 291.355805 291.710562 291.355805 159.189813 0 288.575281-127.518682 291.634816-285.976929-0.260794-1.755566-0.39982-3.551401-0.39982-5.378876 0-19.990052 16.204704-36.194757 36.194757-36.194757s36.194757 16.204704 36.194757 36.194757C876.05597 138.48449400000004 778.308075 271.313978 640.845663 323.284854zM507.395835 358.93788800000004c-107.761618 0-195.11994 87.36024-195.11994 195.122816 0 107.761618 87.358322 195.11994 195.11994 195.11994s195.118981-87.358322 195.118981-195.11994C702.514816 446.299086 615.157453 358.93788800000004 507.395835 358.93788800000004z"  horiz-adv-x="1024" />

    
    <glyph glyph-name="verification" unicode="&#58993;" d="M512.064 894.656c111.424-85.952 231.424-145.728 437.312-145.728l0-377.6c0-180.096-231.424-497.984-437.312-497.984-205.888 0-437.44 317.952-437.44 497.984l0 377.6C280.384 748.928 400.512 808.768 512.064 894.656L512.064 894.656zM512.064 809.792C419.008 738.112 318.912 688.256 147.328 688.256l0-314.816c0-150.144 193.088-415.232 364.672-415.232 171.648 0 364.608 265.088 364.608 415.232L876.608 688.256C705.024 688.256 604.992 738.112 512.064 809.792L512.064 809.792zM769.024 534.656l-28.224 28.16c-7.04 7.04-20.16 5.376-29.312-3.776L450.176 297.53599999999994l-138.432 131.84C302.272 438.4 289.024 439.872 282.112 432.64L254.656 403.712c-6.848-7.232-4.736-20.416 4.736-29.44l173.632-165.376c3.52-3.328 7.552-5.632 11.584-6.848 7.296-3.008 17.216-0.448 24.576 6.912l296.192 296.384C774.4 514.496 776.064 527.616 769.024 534.656z"  horiz-adv-x="1024" />

    
    <glyph glyph-name="refresh" unicode="&#58917;" d="M819.931766 190.41605000000004c-64.538899-101.921297-178.270173-169.57514-307.809481-169.57514-201.051015 0-364.037087 162.984025-364.037087 364.034017 0 201.052039 162.986071 364.037087 364.037087 364.037087 140.697439 0 262.74103-79.824023 323.343269-196.648752l92.157933 0.576121c-66.453505 164.214039-227.440036 280.080953-415.500179 280.080953-247.445672 0-448.044386-200.586434-448.044386-448.044386 0-247.456928 200.598714-448.040293 448.044386-448.040293 160.796196 0 301.847699 84.717474 380.87866 211.960483C935.57867 217.35151599999995 855.535659 246.69482100000005 819.931766 190.41605000000004zM918.159952 580.8953690000001L722.142579 580.8953690000001c-23.193235 0-42.006719-18.814508-42.006719-42.00365 0-23.190165 18.813484-42.004673 42.006719-42.004673l196.017372 0c23.189142 0 42.00365 18.814508 42.00365 42.004673C960.163601 562.080861 941.349093 580.8953690000001 918.159952 580.8953690000001zM918.159952 776.913764c-23.189142 0-42.00365-18.813484-42.00365-42.004673l0-196.017372c0-23.190165 18.814508-42.004673 42.00365-42.004673s42.00365 18.814508 42.00365 42.004673L960.163601 734.909092C960.163601 758.10028 941.349093 776.913764 918.159952 776.913764z"  horiz-adv-x="1024" />

    
    <glyph glyph-name="share" unicode="&#59035;" d="M866.493733 63.21499600000004c0 70.533426-57.735959 127.737266-128.928395 127.737266-31.645744 0-60.247152-11.79872-82.700537-30.573319L399.358547 322.17797900000005c9.82067 18.057261 15.937994 38.362726 15.937994 60.300364 0 19.980054-5.060249 38.656415-13.326517 55.475476l256.169357 163.91728c21.956058-17.177218 49.334615-27.802206 79.425957-27.802206 71.192436 0 128.928395 57.170071 128.928395 127.671775 0 70.567195-57.735959 127.738289-128.928395 127.738289-71.160713 0-128.894625-57.171094-128.894625-127.738289 0-17.404392 3.571339-33.996279 9.952676-49.118698L361.363188 487.95256l2.778276-4.204765c-21.658276 16.362666-48.442292 26.466792-77.773318 26.466792-71.193459 0-128.927371-57.171094-128.927371-127.705544 0-70.567195 57.733912-127.705544 128.927371-127.705544 25.064862 0 48.211025 7.366781 67.985394 19.589151l262.916015-166.492942c-5.291516-13.917988-8.56405-28.877701-8.56405-44.686758 0-70.53445 57.701167-127.705544 128.894625-127.705544 71.192436 0 128.960117 57.202816 128.960117 127.705544L866.493733 63.21294999999998 866.493733 63.21499600000004 866.493733 63.21499600000004zM221.887576 382.51006600000005c0 35.267225 28.867468 63.853283 64.446801 63.853283 35.613102 0 64.48057-28.585035 64.48057-63.853283 0-35.267225-28.833699-63.853283-64.48057-63.853283C250.755044 318.656783 221.887576 347.242841 221.887576 382.51006600000005L221.887576 382.51006600000005 221.887576 382.51006600000005zM674.606425 704.781934c0 35.267225 28.867468 63.853283 64.446801 63.853283 35.613102 0 64.48057-28.586059 64.48057-63.853283 0-35.266202-28.833699-63.85226-64.48057-63.85226C703.473893 640.930697 674.606425 669.5157320000001 674.606425 704.781934L674.606425 704.781934 674.606425 704.781934zM673.085792 63.21499600000004c0 35.266202 28.867468 63.85226 64.48057 63.85226 35.580357 0 64.447824-28.586059 64.447824-63.85226 0-35.267225-28.867468-63.853283-64.447824-63.853283C701.952236-0.6382869999999912 673.085792 27.94777099999999 673.085792 63.21499600000004L673.085792 63.21499600000004 673.085792 63.21499600000004z"  horiz-adv-x="1024" />

    
    <glyph glyph-name="deviceInfo" unicode="&#59988;" d="M480 834.304c-229.76 0-416-186.24-416-416 0-82.432 24-159.296 65.344-223.936 14.72-22.976 50.496-64.064 50.496-64.064L64-61.696000000000026l320.256 75.072c0 0 62.784-11.072 95.744-11.072 229.76 0 416 186.24 416 416S709.76 834.304 480 834.304zM480 66.30399999999997c-19.84 0-62.464 6.208-84.608 10.112l-12.928 2.304-12.8-3.008-172.352-40.384 37.376 61.888 24.064 39.936-30.592 35.136c-12.672 14.528-36.032 42.752-44.864 56.576C147.136 285.312 128 350.84799999999996 128 418.304c0 194.112 157.888 352 352 352s352-157.888 352-352S674.112 66.30399999999997 480 66.30399999999997zM512 608.64c0-17.28-14.016-31.36-31.36-31.36L479.36 577.28C462.016 577.344 448 591.36 448 608.64S462.016 640 479.36 640L480.64 640C497.984 640 512 625.9839999999999 512 608.64zM512 218.55999999999995C512 203.904 500.096 192 485.44 192l-10.88 0C459.904 192 448 203.904 448 218.55999999999995l0 266.88C448 500.096 459.904 512 474.56 512l10.88 0C500.096 512 512 500.096 512 485.44L512 218.55999999999995z"  horiz-adv-x="1024" />

    
    <glyph glyph-name="index" unicode="&#58882;" d="M946.757267 414.510898L553.92332 802.334737c-1.985214 2.358721-6.127558 6.205329-11.914354 10.020214-10.360975 6.826476-21.376866 10.3006-32.731472 10.3006-12.21009 0-23.50125-3.50687-33.570583-10.393721-6.670933-4.591575-10.239202-8.719592-11.775184-10.766205L71.841723 414.479175c-6.716982-6.608511-10.409071-15.419178-10.409071-24.789593 0-9.339716 3.691065-18.151405 10.409071-24.75787 12.347213-12.256138 30.374798-8.751315 47.546899 8.15882l26.356274 26.062586L510.377548 752.352369l2.218528-2.173502 386.629641-380.160299c11.850909-7.755638 22.493294-11.882632 31.118741-11.882632 6.421246 0 11.790534 2.235924 16.411785 6.7968 6.701632 6.607488 10.394744 15.387455 10.42442 24.75787C957.183733 399.059997 953.490621 407.871687 946.757267 414.510898L946.757267 414.510898zM800.221866 434.553373c-16.194844 0-29.442566-13.062504-29.535687-29.101805l0-361.792976c0-19.764136-16.287965-35.836183-36.33044-35.836183l-90.070388 0L644.285351 209.48945400000002c0 49.581232-40.798195 89.913822-90.952478 89.913822l-88.082104 0c-50.15326 0-90.952478-40.332591-90.952478-89.913822l0-201.666022-90.068342 0c-20.042475 0-36.364209 16.071024-36.364209 35.836183L247.865739 405.358447c-0.030699 16.101723-13.247722 29.194926-29.473265 29.194926-16.21224 0-29.459962-13.09218-29.506011-29.164227L188.886463 39.31568000000004c0-49.581232 40.799218-89.913822 90.952478-89.913822l153.439648 0L433.278589 205.11584300000004c0 19.732413 16.318664 35.772738 36.362162 35.772738l79.31851 0c20.058848 0 36.346813-16.040325 36.346813-35.772738l0-255.716033 153.454998 0c50.138934 0 90.968851 40.332591 90.968851 89.912799L829.729923 405.420869C829.604056 421.46017 816.388057 434.553373 800.221866 434.553373L800.221866 434.553373z"  horiz-adv-x="1024" />

    
    <glyph glyph-name="email" unicode="&#58920;" d="M164.431491 640.694313l700.751898 0c2.001587 0 3.921309-0.137123 5.774517-0.409322L517.903965 296.42545600000005 164.431491 640.694313zM896.188544 580.303898l0-416.762939c0-18.124799-12.405541-30.201859-31.006178-30.201859l-706.96132 0c-18.600637 0-31.004131 12.07706-31.004131 30.201859L127.216915 592.381981l390.688073-380.515387L896.188544 580.303898zM871.378485 66.90299200000004c49.619094 0 93.028766 42.279942 86.819344 96.638991L958.19783 610.4914309999999c0 48.325635-43.408649 90.605577-93.01444 90.605577l-706.96132 0c-49.604768 0-93.01444-42.278919-93.01444-90.605577l0-452.997188c0-48.311309 43.409672-90.591251 93.01444-90.591251L871.378485 66.90299200000004z"  horiz-adv-x="1024" />

    
    <glyph glyph-name="video" unicode="&#59671;" d="M770.90765392 461.6722963V642.90765392a51.78153127 51.78153127 0 0 1-51.78153006 51.78153126H97.74775349a51.78153127 51.78153127 0 0 1-51.78153127-51.78153126v-517.81530784a51.78153127 51.78153127 0 0 1 51.78153127-51.78153126h621.37837037a51.78153127 51.78153127 0 0 1 51.78153006 51.78153126v181.23535762l207.12612386-207.12612386v569.59684032l-207.12612386-207.12612386z"  horiz-adv-x="1024" />

    
    <glyph glyph-name="cockpit" unicode="&#58902;" d="M1019.10510023 592.58041913s9.67142627 16.11904341-12.89523541 19.34285255l-419.09512306-304.97229824c-5.80285554-3.22380914-10.96094947-7.09237874-15.47428181-10.96094947l-3.22380914-2.5790464 0.64476274-0.64476274h-0.64476274c-14.82952021-14.18475747-23.85618375-34.17237163-23.21142215-56.73903218 0.6447616-44.4885595 36.75141803-80.59521593 81.23997867-79.95045433 22.56666055 0 42.55427357 9.67142627 57.38379377 24.50094649l1.9342848 1.9342848c1.9342848 1.9342848 3.86857074 4.51333234 5.15809394 6.44761714L1019.10510023 592.58041913zM1051.98794866 509.4061568l-39.97522831-41.9095131c-5.15809394-5.80285554-6.44761714-14.18475747-2.5790464-20.63237461 1.9342848-3.86857074 4.51333234-7.73714034 6.44761714-12.25047382 33.52761003-65.76569685 52.22569984-140.55805725 49.64665344-219.86374884-1.2895232-59.96284131-14.82952021-117.99139669-38.68570396-172.79614406-10.31618787-23.21142215 0-49.64665344 23.21142215-59.31807858 23.21142215-10.31618787 49.64665344 0 59.31807971 23.21142215 29.01427769 65.12093411 44.4885595 134.75520171 45.77808271 206.32375296 3.86857074 107.03044722-24.50094535 207.6132773-75.43712313 293.36658716-5.80285554 10.96094947-19.34285141 12.25047267-27.72475335 3.86857074zM914.00893781 652.5432604499999c9.67142627 7.09237874 9.67142627 22.56666055-0.6447616 29.01427768-83.17426347 55.44950898-181.82280761 88.97711901-288.85325482 91.55616541-301.1037275 7.73714034-553.20556317-230.82469945-560.9427035-532.57318855-1.9342848-79.95045433 12.89523427-157.96662386 44.48855836-230.82469832 7.09237874-16.76380501 23.21142215-27.07999289 40.6199899-27.72475448 6.44761714 0 12.89523427 0.6447616 18.69808982 3.8685696 22.56666055 9.67142627 33.52761003 36.75141803 23.21142214 59.31807971-26.43523129 60.60760291-38.68570397 125.72853703-36.75141916 192.78375709 6.44761714 251.45707406 215.99517923 450.68844829 468.09701604 444.24083114 81.88473913-1.9342848 159.25614706-26.43523129 224.37708117-66.41045845 6.44761714-3.86857074 14.18475747-3.86857074 19.98761415 0.6447616l47.7123675 36.10665757z"  horiz-adv-x="1212" />

    
    <glyph glyph-name="maintenance" unicode="&#59054;" d="M922.61944889 102.99392v39.83132444c0 81.19182222-68.44871111 147.23754667-152.91733334 147.23754667h-9.97603555c-84.17735111 0-152.99015111-66.04572445-152.99015111-147.23754667v-104.56632889c0-44.49166222-37.71960889-80.60928-83.88608-80.60928h-9.68476444c-46.31210667 0-83.95889778 36.11761778-83.95889778 80.60928v195.73418667h28.61738666v29.70965333c172.43249778 15.51018667 207.82193778 218.23488 233.67224889 367.36568889 1.96608 11.72366222 4.15061333 23.22887111 5.97105778 34.44280889 12.23338667 66.99235555 3.2768 118.98424889-26.57848889 154.30087111a118.76579555 118.76579555 0 0 1-82.50254222 41.57895111l-53.52106667 0.07281778a48.93354667 48.93354667 0 0 1-35.02535111 14.56355555 47.69564445 47.69564445 0 0 1-48.56945778-46.74901333c0-25.85031111 21.69969778-46.74901333 48.56945778-46.74901333a50.24426667 50.24426667 0 0 1 32.91363556 12.37902222h53.52106666a48.56945778 48.56945778 0 0 0 30.87473778-17.03936c16.67527111-19.51516445 20.75306667-54.46769778 12.45184-100.99825778-2.11171555-11.28675555-4.07779555-23.01041778-6.26232889-34.87971555-28.98147555-166.97116445-60.14748445-296.58680889-165.58762667-311.296v27.01539555H328.20792889v-27.74357333c-110.24611555 10.48576-141.92184889 141.99466667-171.48586667 312.02417778l-6.18951111 34.87971555c-8.30122667 45.8752-4.29624889 80.53646222 11.65084444 100.12444445a50.24426667 50.24426667 0 0 0 31.67573334 17.91317333h53.59388444c8.59249778-7.57304889 20.02488889-12.37902222 32.69518222-12.37902222a47.69564445 47.69564445 0 0 1 48.56945778 46.74901333 47.69564445 47.69564445 0 0 1-48.56945778 46.74901333 49.22481778 49.22481778 0 0 1-35.17098666-14.56355555h-52.06471111l-1.16508445-0.07281778a118.76579555 118.76579555 0 0 1-82.50254222-41.57895111c-29.85528889-35.31662222-38.88469333-87.30851555-26.79694222-154.30087111 2.11171555-11.21393778 4.07779555-22.79196445 6.11669333-34.51562667 26.2144-150.7328 62.18638222-356.37020445 239.64330667-367.72977778v-29.27274666h31.89418666v-195.73418667c0-81.19182222 68.66716445-147.16472889 153.0629689-147.16472889h9.75758222c84.39580445 0 152.91733333 65.97290667 152.91733333 147.16472889v104.56632889c0 44.49166222 37.57397333 80.68209778 83.88608 80.68209778h9.97603555c46.23928889 0 83.74044445-36.19043555 83.74044445-80.68209778v-40.41386666c-44.34602667-14.19946667-76.53148445-54.61333333-76.53148445-101.9448889 0-59.49212445 50.09863111-107.69749333 111.84810667-107.69749333 61.82229333 0 111.92092445 48.20536889 111.92092445 107.69749333 0.14563555 48.05973333-32.69518222 88.76487111-78.06065778 102.52743112z m-33.71463111-138.35377778a36.26325333 36.26325333 0 0 0-36.99143111 35.60789333c0 11.50520889 5.97105778 21.91815111 14.92764444 28.54456889h44.05475556a35.24380445 35.24380445 0 0 0 15.07328-28.54456889 36.40888889 36.40888889 0 0 0-37.06424889-35.60789333z"  horiz-adv-x="1024" />

    
    <glyph glyph-name="face" unicode="&#58998;" d="M512 840.145455c251.345455 0 456.145455-204.8 456.145455-456.145455S763.345455-72.14545499999997 512-72.14545499999997 55.854545 132.65454499999998 55.854545 384 260.654545 840.145455 512 840.145455M512 896C228.072727 896 0 667.927273 0 384s228.072727-512 512-512 512 228.072727 512 512S795.927273 896 512 896zM328.145455 472.436364m-65.163637 0a65.163636 65.163636 0 1 1 130.327273 0 65.163636 65.163636 0 1 1-130.327273 0ZM663.272727 472.436364m-65.163636 0a65.163636 65.163636 0 1 1 130.327273 0 65.163636 65.163636 0 1 1-130.327273 0ZM691.2 155.927273h-76.8c-100.072727 2.327273-125.672727 2.327273-283.927273 0-16.290909 0-27.927273 11.636364-27.927272 27.927272s11.636364 27.927273 27.927272 27.927273H693.527273c16.290909 0 27.927273-13.963636 27.927272-27.927273-2.327273-16.290909-16.290909-27.927273-30.254545-27.927272z"  horiz-adv-x="1024" />

    
    <glyph glyph-name="search" unicode="&#58906;" d="M686.525 224l267.871-267.797-52.129-52.203-267.871 267.871c-62.953-51.652-144.318-82.961-232.995-82.961-203.559 0-368.587 164.979-368.663 368.52 0 0.073 0 0.151 0 0.229 0 203.556 164.972 368.58 368.508 368.663 0.027 0 0.05 0 0.073 0 203.607 0 368.663-165.056 368.663-368.663 0-88.912-31.475-170.472-83.89-234.147zM401.18 162.433c0 0 0 0 0 0 162.886 0 294.931 132.045 294.931 294.931 0 0.052 0 0.104 0 0.156 0 0.014 0 0.039 0 0.066 0 162.886-132.045 294.931-294.931 294.931 0 0 0 0 0 0-162.79-0.126-294.71-132.123-294.71-294.931 0-0.026 0-0.052 0-0.078 0-0.039 0-0.092 0-0.143 0-162.834 131.961-294.847 294.775-294.931z"  horiz-adv-x="1024" />

    
    <glyph glyph-name="conference" unicode="&#58904;" d="M268.240906 600.05434c57.869283 0 104.857358 46.988075 104.857358 104.857358 0 57.869283-46.988075 104.857358-104.857358 104.857359s-104.857358-46.988075-104.857359-104.857359c0-57.869283 46.988075-104.857358 104.857359-104.857358z m-3.462038 175.091924c36.600755 0 66.277434-29.676679 66.277434-66.277434 0-36.601962-29.676679-66.278642-66.277434-66.278641-36.601962 0-66.278642 29.676679-66.278642 66.278641 0.001208 36.600755 29.676679 66.277434 66.278642 66.277434zM990.373434 810.264151H443.33283c-19.289358 0-32.149736-8.903245-32.149736-28.192604 0-19.290566 12.860377-29.182792 32.149736-29.182792h527.750038s45.999094 1.484075 45.999094-55.891321V339.88830199999995s8.903245-69.245585-47.977056-69.245585H443.827925c-19.290566 0-31.655849-6.924075-31.65585-26.214642 0-19.289358 12.365283-30.170566 31.65585-30.170566h559.899773c38.579925 0 70.234566 31.654642 70.234566 70.234566V734.093283C1073.468377 781.081358 1048.242717 810.264151 990.373434 810.264151zM618.425962 512.508377c0 28.686491-23.741585 52.428075-52.429283 52.428076H180.694943c-24.235472 0-46.988075-9.397132-63.804377-27.203623-16.816302-17.805283-25.22566-40.557887-23.741585-64.793358l10.881208-191.909434c1.977962-34.622792 28.687698-62.321509 62.321509-65.783547l14.343245-231.47834c1.977962-27.698717 24.730566-49.461132 52.428076-49.461132h70.234566c27.698717 0 50.945208 21.762415 52.429283 49.461132l26.708528 443.666113 185.479246 32.64483c27.698717 0.988981 50.451321 24.235472 50.45132 52.429283z m-76.170868-18.301585l-187.952302-34.622792c-7.41917-1.482868-13.354264-7.913057-13.354264-15.827321l-25.719547-452.074264c-0.495094-8.903245-7.914264-16.322415-16.322415-16.322415h-66.277434c-8.409358 0-15.828528 6.924075-16.322415 16.322415l-14.83834 244.33751c-0.495094 8.903245-7.914264 16.322415-16.322415 16.322415h-8.408151c-17.311396 0-31.654642 14.343245-32.64483 32.64483l-9.892226 189.43517a52.09117 52.09117 0 0 0 13.354264 38.579924c9.397132 10.387321 22.257509 16.322415 35.611773 16.322415h361.560151c8.903245 0 16.322415-7.914264 16.322415-17.311396s-7.41917-17.311396-16.322415-17.311396c-0.492679 0-1.482868 0-2.471849-0.495095z m116.233661-98.922264c3.462038-3.462038 7.914264-4.946113 12.365283-4.946113h2.968151c5.44 0.990189 10.386113 4.452226 12.859169 9.39834l58.859472 118.211622 53.418264-52.923169c3.955925-3.957132 9.397132-5.935094 14.343246-4.946114 5.441208 0.495094 9.892226 3.957132 12.860377 8.408151l104.857358 175.093132c4.946113 8.408151 1.977962 18.794264-5.935094 24.235472-8.409358 4.946113-18.795472 1.977962-24.236679-5.935094l-93.481057-155.802566-54.407245 54.407245c-3.957132 3.957132-9.39834 5.935094-15.333434 4.946113-5.44-0.988981-10.386113-4.452226-12.85917-9.398339l-58.859471-118.211623-17.805283 17.80649c-6.925283 6.924075-17.806491 6.924075-24.730567 0-6.925283-6.925283-6.925283-17.806491 0-24.730566l35.11668-35.612981z"  horiz-adv-x="1159" />

    
    <glyph glyph-name="fileFolder" unicode="&#59110;" d="M953.9 595.3c-27.2 42-657 19.8-716.3-34.6-59.3-54.4-103.7-511.3-81.5-528.6 22.2-17.3 708.9-17.3 731.1 17.3 22.3 34.6 93.9 503.9 66.7 545.9zM573.8 643.6c-16.7 39.9-40 82.7-67 95-54.3 24.7-390.3-7.4-432.3-46.9-35-33 26.2-411.3 47.4-536 7.3 141.2 42.7 395 85.9 434.7 29.6 26.9 199.2 45.9 366 53.2z"  horiz-adv-x="1024" />

    
    <glyph glyph-name="setting" unicode="&#58940;" d="M996.057397 472.829968c-12.925968 12.976762-30.082032 20.120381-48.288508 20.120381h-44.064508c-6.133841 0-15.366095 6.467048-18.267429 15.378286l-26.540698 64.197079c-2.97854 5.589333-1.403937 16.572952 3.004952 20.967619l31.274667 31.195429c12.94019 12.976762 20.022857 30.189714 19.963937 48.47746-0.018286 18.249143-7.127365 35.350349-20.012699 48.138159L841.264762 773.044825c-12.316444 12.328635-29.929651 19.411302-48.318984 19.411302s-35.972063-7.082667-48.227556-19.350349l-31.24419-31.164953c-2.137397-2.139429-7.812063-4.396698-14.145016-4.396698-2.779429 0-5.225651 0.453079-6.781968 1.312508-0.944762 0.483556-1.936254 0.975238-2.941969 1.397841l-63.916698 26.162794c-5.96927 1.859048-12.76546 11.081143-12.76546 17.306413V827.747556C612.91073 865.385651 582.25981 896 544.629841 896h-73.199746c-37.699048 0-68.362159-30.614349-68.362158-68.252444V783.725714c0-6.194794-6.454857-15.44127-15.355937-18.310095l-61.417651-25.183492c-1.003683-0.43073-1.968762-0.853333-2.870857-1.345016-4.618159-2.474667-17.166222-0.670476-20.937143 3.051683l-31.136508 31.106031c-12.332698 12.363175-29.943873 19.441778-48.339301 19.441778-18.371048 0-35.953778-7.046095-48.227556-19.350349L122.940952 721.334857c-12.897524-12.877206-19.98019-30.06781-19.961904-48.347428 0-18.25727 7.076571-35.380825 19.943619-48.168635l31.164952-31.195429c4.455619-4.461714 6.093206-15.416889 3.191873-20.825397a24.07619 24.07619 0 0 1-1.448635-3.051682l-26.235936-64.067048c-1.846857-5.953016-11.068952-12.728889-17.310477-12.728889H68.329651C30.644825 492.950349 0 462.299429 0 424.663365v-73.232254c0-37.662476 30.632635-68.280889 68.282921-68.280889h43.88165c6.192762-0.032508 15.447365-6.534095 18.346667-15.506285l26.650413-64.130032c2.929778-5.497905 1.324698-16.668444-3.039492-21.004191l-31.305143-31.256381c-26.50819-26.678857-26.459429-69.991619 0.079238-96.520127l51.831873-51.768889c12.316444-12.365206 29.929651-19.441778 48.321016-19.441777 18.393397 0 35.974095 7.076571 48.215365 19.382857l31.317333 31.256381c2.076444 2.074413 7.647492 4.274794 13.901207 4.274793 2.761143 0 5.207365-0.461206 6.763682-1.312508 0.961016-0.520127 1.938286-0.979302 2.97854-1.403936L390.278095 9.549206000000027c6.103365-1.889524 12.78781-10.955175 12.78781-17.304381v-43.83492c0-37.636063 30.663111-68.282921 68.362158-68.282921h73.211937c37.650286 0 68.280889 30.646857 68.280889 68.282921v43.83492c0 6.009905 6.613333 15.414857 15.386413 18.255238l61.41765 25.211937c0.993524 0.392127 1.997206 0.885841 3.051683 1.434413 1.483175 0.822857 3.937524 1.284063 6.733206 1.284063 6.314667 0 11.964952-2.228825 14.041397-4.30527l31.106032-31.223873c12.316444-12.306286 29.927619-19.382857 48.318984-19.382857 18.407619 0 35.984254 7.076571 48.227556 19.382857l51.878603 51.829842c12.891429 12.88127 19.994413 30.03327 19.994412 48.321015 0 18.253206-7.115175 35.437714-20.022857 48.347429l-31.262476 31.134476c-4.167111 4.156952-5.953016 15.418921-1.62946 23.838476l26.109968 63.863873c1.895619 6.011937 11.146159 12.848762 17.353143 12.848762h44.021841c37.61981 0 68.221968 30.612317 68.221968 68.280889v73.081905c0.111746 18.259302-6.92419 35.413333-19.811555 48.381968z m-169.195683-181.101714l-23.875047-58.485841c-15.872-29.856508-9.644698-71.826286 14.179555-95.540826l31.225905-31.134476c0.932571-0.914286 1.422222-2.139429 1.422222-3.512889 0-1.403937-0.489651-2.622984-1.452698-3.575873l-51.935492-51.888762c-2.354794-2.381206-4.687238-2.29181-7.005461 0.028445l-31.093841 31.195428c-14.175492 14.197841-36.264635 22.682413-59.097397 22.682413-12.848762 0-24.99454-2.748952-34.580317-7.690159l-57.845841-23.873016c-32.038603-10.069333-57.146921-44.198603-57.146921-77.685841v-43.83492c0-2.620952-2.393397-5.000127-5.032635-5.000127h-73.199746c-2.669714 0-5.099683 2.379175-5.099683 5.000127v43.83492c0 33.609143-24.279365 67.431619-54.62146 76.771556l-59.861333 24.508952c-10.136381 5.221587-22.269968 7.940063-35.069968 7.940064-22.804317 0-44.856889-8.454095-58.965334-22.621461l-31.297016-31.256381c-2.476698-2.442159-4.473905-2.503111-7.00546 0.058921l-51.878603 51.829841c-1.861079 1.865143-1.861079 5.252063-0.030476 7.115175l31.134476 31.077587c23.554032 23.344762 30.390857 65.290159 15.567238 92.763429l-24.358603 58.63619c-9.900698 32.024381-43.99746 57.238349-77.655365 57.358222H68.289016a5.014349 5.014349 0 0 0-5.02654 5.000127v73.232254c0 2.777397 2.275556 5.006222 5.069207 5.006223h43.954793c33.107302 0 67.646984 24.813714 76.759365 54.609269l24.632889 59.863365c15.215746 29.972317 8.834032 70.450794-14.835809 94.169397l-31.225905 31.284826c-1.133714 1.127619-1.37346 2.470603-1.37346 3.573841a4.68927 4.68927 0 0 0 1.434412 3.445841l51.87454 51.801397c2.354794 2.348698 4.612063 2.379175 7.023746-0.060952l31.286857-31.195429c14.281143-14.222222 36.280889-22.710857 58.837333-22.710857 12.775619 0 24.951873 2.750984 34.67581 7.696254l57.675175 23.779555c32.128 9.947429 57.278984 44.109206 57.278984 77.805715V827.747556c0 2.620952 2.427937 5.006222 5.099682 5.006222h73.211937c2.627048 0 5.02654-2.38527 5.026539-5.006222V783.725714c0-33.084952 24.783238-67.640889 54.572699-76.76546l59.710984-24.54146c10.14654-5.197206 22.294349-7.909587 35.11873-7.909588 22.814476 0 44.934095 8.452063 59.097397 22.649905l31.317333 31.195429c2.360889 2.381206 4.668952 2.35073 7.094857-0.060953l51.923302-51.801397c1.204825-1.190603 1.387683-2.657524 1.387683-3.48038 0-1.37346-0.501841-2.659556-1.416127-3.57181l-31.335619-31.195429c-23.348825-23.476825-30.110476-65.324698-15.398604-92.615111l24.269207-58.825143c10.069333-32.018286 44.202667-57.108317 77.698031-57.108317h44.064508c1.296254 0 2.458413-0.522159 3.390985-1.436444a4.896508 4.896508 0 0 0 1.446603-3.600254l0.018285-73.293207c0-2.618921-2.366984-5.032635-4.95746-5.032635h-44.040127c-33.015873-0.002032-67.553524-24.783238-76.769524-54.605206z m0 0M508.117333 602.898286c-118.48127 0-214.883556-96.367746-214.883555-214.834794 0-118.43454 96.402286-214.802286 214.883555-214.802286 118.436571 0 214.804317 96.367746 214.804318 214.802286 0 118.469079-96.367746 214.834794-214.804318 214.834794z m0-366.392889c-83.610413 0-151.619048 67.98019-151.619047 151.558095 0 83.579937 68.010667 151.560127 151.619047 151.560127 83.565714 0 151.53981-67.98019 151.53981-151.560127 0-83.577905-67.974095-151.558095-151.53981-151.558095z m0 0"  horiz-adv-x="1024" />

    
    <glyph glyph-name="smile" unicode="&#58932;" d="M512.007425-128A511.992535 511.992535 0 1 0 1023.99996 383.649535 512.881534 512.881534 0 0 0 512.007425-128z m0 960.062128a448.412593 448.412593 0 1 1 448.069593-448.412593 448.754592 448.754592 0 0 1-448.069593 448.344593z m0-752.349317A342.605689 342.605689 0 0 0 250.160663 200.77970100000005a32.165971 32.165971 0 1 0 48.796955 41.952962 280.189746 280.189746 0 0 1 427.469612 0 31.686971 31.686971 0 1 0 47.906957-41.062962 345.753686 345.753686 0 0 0-262.531762-121.75289zM349.054573 386.387533a51.944953 51.944953 0 0 0-51.534953 51.602953v70.149936a51.534953 51.534953 0 1 0 103.069906 0v-70.149936a51.944953 51.944953 0 0 0-51.534953-51.602953z m325.769704 0a51.944953 51.944953 0 0 0-51.534953 51.602953v70.149936a51.534953 51.534953 0 1 0 103.069906 0v-70.149936a51.465953 51.465953 0 0 0-51.534953-51.602953z"  horiz-adv-x="1024" />

    
    <glyph glyph-name="more" unicode="&#58927;" d="M164.197376 483.523584c-46.78656 0-84.716544-37.074944-84.716544-82.811904 0-45.733888 37.92896-82.806784 84.716544-82.806784 46.785536 0 84.71552 37.072896 84.71552 82.806784 0 45.73696-37.92896 82.811904-84.71552 82.811904z m362.48576 0c-46.784512 0-84.714496-37.074944-84.714496-82.811904 0-45.733888 37.92896-82.806784 84.71552-82.806784 46.78656 0 84.716544 37.072896 84.716544 82.806784 0 45.73696-37.92896 82.811904-84.716544 82.811904z m362.489856 0c-46.787584 0-84.717568-37.074944-84.717568-82.811904 0-45.733888 37.92896-82.806784 84.717568-82.806784 46.785536 0 84.71552 37.072896 84.71552 82.806784 0 45.73696-37.929984 82.811904-84.71552 82.811904z"  horiz-adv-x="1024" />

    
    <glyph glyph-name="message" unicode="&#58907;" d="M940.23712 151.23199999999997c-11.712 14.656-24.96 32.128-39.552 52.48a524.48 524.48 0 0 0-39.04 63.36A479.424 479.424 0 0 0 830.47712 339.20000000000005a205.952 205.952 0 0 0-11.264 67.52c0 36.288-5.76 70.08-17.152 100.096a291.136 291.136 0 0 1-45.12 80.64 272.384 272.384 0 0 1-68.224 60.544 299.648 299.648 0 0 1-45.44 23.296l-24.704 11.264-9.92 2.368c19.392 22.464 31.552 51.328 31.552 83.2a127.872 127.872 0 0 1-255.744 0c0-32.256 12.416-61.44 32.128-83.968-3.84-0.96-7.04-1.856-8.256-2.24a323.584 323.584 0 0 1-77.184-36.352 281.152 281.152 0 0 1-111.168-137.792A278.144 278.144 0 0 1 201.99712 405.76c0-23.808-3.776-46.72-11.136-67.84-8.704-24.896-19.2-48.832-31.168-71.424-11.712-22.4-24.32-43.392-38.592-64.192-15.68-22.72-28.992-43.264-38.592-58.624-25.856-36.48-20.352-73.408-6.4-95.936 18.88-29.888 47.872-47.744 77.632-47.744h697.536c18.56 0 50.752 12.672 58.88 16.96 16.128 8 27.264 20.48 33.6 29.248 9.728 13.184 15.36 29.248 16.448 46.144a82.816 82.816 0 0 1-19.968 58.88zM512.39712 832a64 64 0 1 0-0.064-128.064A64 64 0 0 0 512.39712 832z m380.16-749.056a29.056 29.056 0 0 0-9.92-9.152c-5.248-2.816-23.36-9.024-29.44-9.792H151.05312c-6.336 0-15.04 6.848-21.056 16.512-1.92 3.328-4.032 10.432 5.376 23.872 10.24 16.768 23.168 36.672 38.272 58.88 15.936 23.552 29.952 47.104 43.072 72.064 13.568 25.856 25.472 53.44 35.328 81.984 9.92 28.8 14.976 59.52 14.976 91.456a219.2 219.2 0 0 0 99.328 186.88c20.352 12.992 40.96 22.848 59.52 28.736l36.544 10.048 0.64 0.128-0.128-0.064C478.34912 638.0799999999999 494.47712 640 511.18112 640c43.648 0 76.544-12.8 79.424-13.824 24.96-7.68 45.184-16.768 63.808-28.608 19.712-12.352 37.248-28.032 51.776-46.336 14.656-18.56 26.432-39.872 35.008-63.424 8.704-23.04 13.056-49.28 13.056-78.08 0-31.04 5.056-61.568 14.912-90.624 9.792-29.056 21.824-57.28 35.712-83.328 13.888-26.496 28.736-50.88 44.16-72.32 15.36-21.76 29.44-40.512 42.304-56.704 3.648-4.352 5.312-8.512 5.056-12.672a20.672 20.672 0 0 0-3.84-11.136zM672.39712-64a32 32 0 1 0 0-64h-320a32 32 0 0 0 0 64h320z"  horiz-adv-x="1024" />

    
    <glyph glyph-name="zhihuijiaoyu" unicode="&#59074;" d="M413.5 564.7L220 619.6c-14.8 4.1-30.2-4.6-34.3-19.4s4.6-30.2 19.4-34.3l193.7-55.1c14.8-3.9 30.1 4.8 34.3 19.5 3.6 14.8-5 29.9-19.6 34.4m0-335.7l-193.7 55.1c-14.7 4.1-29.9-4.5-34-19.1v-0.2c-4.2-14.8 4.3-30.2 19.1-34.4l193.7-55.1c2.5-0.7 5-1.1 7.6-1.2 12.5 0.1 23.3 8.5 26.7 20.5 3.8 14.8-4.8 30-19.4 34.4m0 167.7l-193.7 55.2c-14.7 4.1-29.9-4.5-34-19.2v-0.2c-4.2-14.8 4.3-30.2 19.1-34.4L398.6 343c2.5-0.7 5-1 7.6-0.9 12.5 0 23.4 8.4 26.7 20.5 3.8 14.8-4.8 29.9-19.4 34.1M627.4 174c2.6 0 5.1 0.4 7.6 1.2l193.7 55.1c14.8 4.3 23.3 19.7 19.1 34.4-4 14.7-19.2 23.4-33.9 19.3h-0.2l-193.5-55.1c-14.8-4.3-23.3-19.7-19.1-34.4 3.1-12.1 13.9-20.6 26.3-20.5m268 654.5L529.6 728.3c-12.8-2.6-25.9-2.6-38.6 0l-356.4 100c-25.9 7.6-53-7.3-60.6-33.2-1.4-4.6-2-9.4-2-14.2v-680.1c0.8-28.9 20.1-54.1 47.8-62.3l356.4-99.8c11.3-2.8 22.9-4.3 34.5-4.2 11.2-0.1 22.5 1.2 33.4 4l365.8 100.3c27.8 8.2 47.2 33.3 48.1 62.3V780.8c0.1 27.2-21.8 49.4-49 49.5-4.6 0-9.2-0.6-13.6-1.8M133.7 92.3c-3.4 1.7-5.8 4.9-6.4 8.6V772.2L476 674.7c3.6-1 7.3-1.7 11-2.1v-679l-353.3 98.7m768.9 8.4c-0.9-3.8-3.6-6.9-7.1-8.4l-352.7-96.6V674c0.5 0.2 1.1 0.2 1.6 0.5l358.2 97.9v-671.7M627.4 509.8c2.6 0 5.1 0.3 7.6 0.9l193.7 55.1c14.8 4.1 23.5 19.5 19.4 34.3-4.1 14.8-19.5 23.5-34.3 19.4l-193.5-55.1c-14.8-4.3-23.3-19.7-19.1-34.4 3-11.9 13.9-20.3 26.2-20.2m0-167.9c2.6 0 5.1 0.3 7.6 0.9L828.7 398c14.7 4.3 23.2 19.7 19.1 34.4-4 14.7-19.2 23.4-33.9 19.4h-0.1l-193.5-55.1c-14.7-4.3-23.2-19.7-19.1-34.4 3.1-12.1 13.9-20.5 26.2-20.4m0 0z"  horiz-adv-x="1024" />

    
    <glyph glyph-name="kefu" unicode="&#58889;" d="M115.072-128c-20.864 0-37.888 16.896-37.888 37.888 0 82.304 97.152 141.824 268.16 165.504v11.52c-115.968 88.704-115.968 253.44-115.968 353.664 0 165.376 97.28 264.064 260.224 264.064h8.704c163.072 0 260.352-98.688 260.352-264.064 0-12.16-0.128-24.576-0.512-36.992-0.64-20.992-17.664-37.504-38.912-36.864-20.864 0.512-37.376 18.048-36.864 38.912 0.384 11.776 0.512 23.424 0.512 34.944 0 124.928-62.08 188.288-184.576 188.288h-8.704c-122.368 0-184.448-63.36-184.448-188.288 0-121.088 7.552-244.096 98.432-301.952 10.88-6.912 17.536-19.072 17.536-32v-64.768c0-19.456-14.592-35.584-33.92-37.632-152.192-16-234.24-60.672-234.24-94.336 0-20.864-17.024-37.888-37.888-37.888z m761.472 0c-20.992 0-37.888 16.896-37.888 37.888 0 33.792-82.048 78.208-234.112 94.336-19.328 2.048-33.92 18.304-33.92 37.632v64.768c0 20.992 16.896 37.888 37.888 37.888 20.992 0 37.888-16.896 37.888-37.888v-31.232c170.88-23.68 268.032-83.328 268.032-165.504 0-20.864-17.024-37.888-37.888-37.888zM614.272 211.84000000000003c-52.096 0-91.136 5.248-92.16 5.632-18.688 5.76-29.952 24.704-25.984 43.904 3.968 19.072 21.76 31.872 41.216 29.952 94.464-10.368 238.72-1.408 264.064 51.2 8.96 18.816 31.616 26.88 50.56 17.792 18.816-9.088 26.88-31.616 17.792-50.56-39.424-82.432-166.4-97.92-255.488-97.92z m336 39.68c-20.992 0-37.888 16.896-37.888 37.888V421.76l-50.56 18.048c-15.104 5.376-25.216 19.712-25.216 35.712 0 190.08-152.96 344.704-340.992 344.704-188.032 0-340.992-154.624-340.992-344.704 0-12.288-5.888-23.68-15.872-30.848l-22.016-15.744V289.28c0-20.992-17.024-37.888-37.888-37.888C57.984 251.51999999999998 40.96 268.41600000000005 40.96 289.28V448.512c0 12.288 5.888 23.68 15.872 30.848L79.36 495.232C89.6 717.952 272.384 896 495.616 896c220.8 0 402.048-174.208 415.872-393.472l51.456-18.304c15.104-5.376 25.216-19.712 25.216-35.712V289.28c0-20.864-17.024-37.76-37.888-37.76z"  horiz-adv-x="1024" />

    
    <glyph glyph-name="down" unicode="&#58968;" d="M511.753 271.135l292.1589999999999 292.15500000000003c12.269999999999996 12.280000000000003 32.18599999999999 12.280000000000003 44.457 7.105427357601002e-15 12.280000000000003-12.269999999999996 12.280000000000003-32.18599999999999 7.105427357601002e-15-44.457l-314.3879999999999-314.388c-12.269999999999996-12.280000000000003-32.18599999999999-12.280000000000003-44.457-7.105427357601002e-15l-314.387 314.3879999999999c-6.1400000000000015 6.135999999999998-9.211000000000002 14.182999999999998-9.211000000000006 22.228s3.070999999999998 16.092 9.210999999999997 22.228c12.269999999999996 12.280000000000003 32.18599999999999 12.280000000000003 44.457 7.105427357601002e-15l292.1600000000001-292.1549999999999z"  horiz-adv-x="1024" />

    
    <glyph glyph-name="start" unicode="&#59116;" d="M439.49375 561.58125c-11.3625 11.475-34.36875 3.7125-34.36875-15.24375v-334.575c0-15.24375 19.125-26.83125 34.36875-15.24375l167.9625 154.9125a37.125 37.125 0 0 1 0 53.55l-167.9625 156.6zM954.575 383.88750000000005a441.7875 441.7875 0 0 1-442.6875 442.6875 441.39375 441.39375 0 0 1-312.975-129.43125 441.225 441.225 0 0 1-129.4875-313.25625 439.70625 439.70625 0 0 1 129.0375-313.5375 439.0875 439.0875 0 0 1 313.36875-128.925c243.73125 2.475 442.74375 198.84375 442.74375 442.4625z m-833.175 0a390.4875 390.4875 0 0 0 390.4875 390.7125c217.06875 0 393.13125-175.89375 393.13125-390.7125 0-214.48125-176.0625-390.6-393.13125-390.6a388.74375 388.74375 0 0 0-390.4875 390.6z"  horiz-adv-x="1024" />

    
    <glyph glyph-name="zone" unicode="&#59166;" d="M829.40586667 492.22542223C757.52106667 756.14435556 511.01013334 739.21422223 511.01013334 739.21422223c-260.16426667 0-298.5984-239.616-298.5984-239.616-28.53546667 3.75466667-198.2464-45.80693333-192.17066667-220.5696 6.07573333-174.62613333 197.08586667-206.91626667 216.95146667-203.43466667 19.79733333 3.54986667 21.02613333 21.2992 21.02613333 21.2992 6.21226667 42.12053333-28.4672 40.89173333-28.4672 40.89173334l-14.88213333 2.4576c-126.42986667 19.8656-130.11626667 140.0832-130.11626667 140.0832 0 184.59306667 190.8736 169.71093333 190.8736 169.71093333-2.52586667 229.23946667 235.3152 229.23946667 235.3152 229.23946667 252.7232 0 275.0464-237.84106667 275.0464-237.84106667 30.9248 14.88213333 138.78613333-24.7808 138.78613333-151.1424 0-126.42986667-130.11626667-151.21066667-158.65173333-154.89706667-28.4672-3.75466667-26.0096-29.696-26.0096-29.696 2.4576-34.74773333 32.22186667-29.76426667 32.22186667-29.76426666 68.06186667 4.9152 207.80373333 60.68906667 207.80373333 219.3408 0.13653333 158.5152-150.7328 196.94933333-150.7328 196.94933333zM647.8848 51.086222229999976v-4.64213333l-4.64213333-2.32106667H525.96053334a4703.57333333 4703.57333333 0 0 0-119.53493334-2.32106667c-35.97653333 0-53.93066667 13.24373333-53.93066666 39.86773334 0 12.56106667 69.49546667 73.45493333 208.62293333 182.81813333 15.63306667 10.92266667 24.9856 18.0224 28.12586667 21.0944H481.45066667c-48.46933333 0-79.6672-1.50186667-93.73013333-4.64213333-4.64213333 0-7.85066667 2.32106667-9.4208 7.03146666 0 14.06293333 1.50186667 26.55573333 4.64213333 37.54666667 1.50186667 4.57386667 4.64213333 6.89493333 9.4208 6.89493333 1.50186667 1.50186667 4.64213333 1.50186667 9.4208 0h16.384c43.75893333 1.50186667 114.00533333 2.32106667 211.01226667 2.32106667 18.70506667-1.50186667 31.26613333-18.0224 37.54666666-49.22026667 0-1.50186667-46.08-39.86773333-138.30826666-114.8928-60.96213333-46.8992-94.54933333-73.45493333-100.82986667-79.6672h37.54666667c109.43146667 1.50186667 168.07253333 1.50186667 175.85493333 0 4.64213333 0 7.03146667-3.14026667 7.03146667-9.4208l-0.13653334-30.44693333z"  horiz-adv-x="1024" />

    
    <glyph glyph-name="complete" unicode="&#58915;" d="M328 16a63.776 63.776 0 0 0-45.248 18.752l-240 240a64 64 0 1 0 90.496 90.496l194.752-194.752L890.752 733.248a64 64 0 1 0 90.496-90.496l-608-608c-12.48-12.48-28.864-18.752-45.248-18.752z"  horiz-adv-x="1024" />

    
    <glyph glyph-name="delete" unicode="&#58909;" d="M780.8 587.7760000000001c0 23.04 18.944 41.984 41.984 41.984s41.984-18.944 41.984-41.984v-616.448c0-54.272-44.032-98.304-98.304-98.304H262.656c-54.272 0-98.304 44.032-98.304 98.304V587.7760000000001c0 23.04 18.944 41.984 41.984 41.984s41.984-18.944 41.984-41.984v-616.448c0-7.68 6.144-13.824 13.824-13.824h504.32c7.68 0 13.824 6.144 13.824 13.824V587.7760000000001z m-209.92-178.688c0 23.04 18.944 41.984 41.984 41.984 23.04 0 41.984-18.944 41.984-41.984v-231.424c0-23.04-18.944-41.984-41.984-41.984-23.04 0-41.984 18.944-41.984 41.984V409.088zM654.336 896c23.04 0 41.984-18.944 41.984-41.984s-18.944-41.984-41.984-41.984H388.608c-23.04 0-41.984 18.944-41.984 41.984S365.568 896 388.608 896h265.728zM374.784 409.088c0 23.04 18.944 41.984 41.984 41.984s41.984-18.944 41.984-41.984v-231.424c0-23.04-18.944-41.984-41.984-41.984s-41.984 18.944-41.984 41.984V409.088z m-322.56 234.496c-23.04 0-41.984 18.944-41.984 41.984s18.944 41.984 41.984 41.984h924.672c23.04 0 41.984-18.944 41.984-41.984s-18.944-41.984-41.984-41.984H52.224z"  horiz-adv-x="1024" />

    
    <glyph glyph-name="upload" unicode="&#59032;" d="M201.6 452.8c8 0 16 3.2 22.4 9.6l259.2 259.2v-560c0-17.6 14.4-32 32-32s32 14.4 32 32v560l254.4-254.4c12.8-12.8 32-12.8 44.8 0s12.8 32 0 44.8L539.2 822.4c-12.8 12.8-32 12.8-44.8 0L179.2 507.2c-12.8-12.8-12.8-32 0-44.8 6.4-6.4 14.4-9.6 22.4-9.6zM923.2 193.60000000000002c-17.6 0-32-14.4-32-32v-132.8c0-17.6-14.4-32-32-32H168c-17.6 0-32 14.4-32 32v132.8c0 17.6-14.4 32-32 32s-32-14.4-32-32v-132.8c0-52.8 43.2-96 96-96h691.2c52.8 0 96 43.2 96 96v132.8c0 17.6-14.4 32-32 32z"  horiz-adv-x="1024" />

    
    <glyph glyph-name="cry" unicode="&#58884;" d="M1006.86848 253.53671111000006c21.59160889 80.10865778 22.81244445 160.75434667 5.03808 241.52746667C951.81368889 768.57799111 682.3936 943.5943822199999 409.78659555 886.62698667 172.71921778 837.07448889 1.88871111 626.22378667 2.38250667 383.71555555c-0.88291555-0.12174222-1.73852445-0.23552-2.62599112-0.35612444 4.75932445-35.74442667 7.32956445-71.96672 14.68416-107.19573333 23.69422222-113.41141333 79.65582222-208.91875555 168.42524445-282.60124445 142.92764445-118.68387555 305.33063111-151.09688889 482.95025778-98.71928888 97.87278222 28.85973333 178.46613333 85.87036445 243.13514667 165.19850666 3.83772445 4.70357333 6.98481778 6.47623111 13.77166222 5.22808889 49.72088889-9.13749333 94.98168889 23.92632889 100.12672 74.00106667 3.65454222 35.75239111-3.50663111 70.51264-14.70350222 104.42865778-1.01489778 3.13799111-2.08327111 6.89493333-1.27772445 9.83836444zM942.07317333 106.49599999999998c-23.1424-1.51438222-42.47893333 14.11868445-44.76472888 38.22933333-1.97745778 20.71552-1.06382222 41.69728-2.72270223 62.44352-3.32458667 41.20462222-7.53550222 82.35804445-11.35843555 123.47847112-0.28444445 2.97870222-0.39025778 5.95399111-0.57230222 8.92472888 0.88177778 0.67811555 1.76355555 1.36192 2.62485333 2.03662222 14.10503111-13.99011555 29.25112889-27.08821333 42.08981333-42.16604444 36.22001778-42.61546667 53.51765333-92.58325333 53.82826667-148.53461333 0.10467555-24.10951111-16.47047111-42.89763555-39.12476445-44.41201778z m32.27079112 203.36184889c-2.57592889 2.94456889-4.88675555 5.34641778-6.88810667 7.95079111-25.87534222 33.97973333-58.11996445 60.38186667-95.32302223 80.85048889-1.81361778 0.99328-3.63406222 1.96835555-5.50456888 2.87175111-8.28643555 3.97539555-16.78563555 5.20192-24.65792-0.35612445-8.26140445-5.83452445-9.94872889-14.55217778-8.54471112-24.15502222 2.87857778-19.95889778 6.59911111-39.85066667 8.3410489-59.89034666 4.46008889-51.58343111 9.0112-103.22716445 11.55640888-154.94599112 1.32323555-26.8288 4.75477333-51.87697778 23.93429334-71.91893333-116.81336889-155.36583111-357.69799111-235.32088889-572.42965334-127.03175111C76.17422222 78.57948445-17.47057778 348.34204445 87.98776889 580.92999111 191.70417778 809.72458667 457.40942222 915.44803555 692.55054222 818.05084445c231.93486222-96.06940445 315.32600889-333.88316445 281.79342223-508.19413334z m-679.85521778 216.32568889c-7.56622222 8.20110222-16.66048 8.16469333-26.63537778 4.67285333-35.48273778-12.43704889-68.95047111-29.04746667-99.16871111-51.43665778-43.15363555-31.98065778-75.10471111-71.15662222-80.30094223-127.8976-4.67740445-50.95879111 31.98293333-94.11811555 82.84956445-95.34577778 45.28128-1.14915555 83.11125333 33.91943111 86.30954667 79.90499556 0.98986667 14.19264 1.50641778 28.49223111 3.32572444 42.58360889 5.4272 42.3424 18.28636445 82.54577778 35.98108444 121.26663111 4.13013333 9.00323555 4.98801778 18.26929778-2.36088888 26.25080889z m-76.91036445-151.06616889c-2.30627555-12.89102222-1.55875555-26.33614222-3.21763555-39.40124444-2.90929778-22.60309333-22.26062222-38.47168-43.98990222-36.95616-23.07072 1.62133333-39.95306667 20.25358222-39.79605334 43.76462222 0.15132445 24.23921778 9.03736889 45.37799111 23.40977778 64.31402666 19.09418667 25.22453333 53.72586667 51.50037333 82.61632 63.7952-6.39431111-31.79178667-13.27786667-63.55171555-19.02250667-95.51644444z m-1.55875555 181.04433778c5.82314667-0.45283555 12.79089778 4.36565333 18.11342222 8.37745778 29.43203555 22.21169778 61.59701333 35.88096 99.16871111 32.26282666 29.82912-2.90247111 55.48942222-15.87086222 78.66481778-34.54179556 11.50976-9.29336889 24.73870222-8.66645333 32.37774222 0.87153778 7.81994667 9.77123555 5.95057778 22.58716445-5.48408889 32.04778667-33.88302222 28.04053333-72.51057778 44.04565333-116.26609778 45.30972445-33.33006222-0.63488-63.98976-9.52092445-91.81525333-26.99605334-11.29813333-7.11111111-21.87605333-15.71726222-31.69393778-24.82744889-6.44209778-5.97902222-6.80732445-15.46808889-1.45976889-21.92839111 4.34289778-5.24743111 11.90115555-10.07729778 18.39331556-10.57564444z m606.02595555 38.87217778c-34.09009778 28.42624-73.08743111 44.31644445-115.07484444 45.43146666-35.48956445-0.71907555-66.06165333-9.85543111-93.81660445-27.38631111-11.24238222-7.12248889-22.46883555-15.29628445-31.22631111-25.20974222-10.39018667-11.776-1.92625778-30.76778667 13.80124445-31.56992 6.69582222-0.34133333 14.74901333 3.28590222 20.39011555 7.52867555 36.37134222 27.39541333 75.68725333 41.43331555 121.32465778 28.97123556 21.31285333-5.81632 40.17265778-16.4352 57.344-30.33656889 11.69408-9.42990222 24.54755555-8.98161778 32.39822222 0.43349333 7.74826667 9.30133333 5.91985778 22.87616-5.14048 32.13767112zM676.52949333 322.23231999999996c-34.33358222 28.18958222-71.07470222 40.49578667-108.53603555 41.04647111-36.49308445 0.53361778-73.07264-10.28892445-108.30279111-28.48085333-64.15132445-33.12298667-124.28401778-90.95850667-170.752-148.05788445-7.12248889-8.74154667-5.83907555-21.62688 2.86264888-28.77781333 8.704-7.15207111 21.53130667-5.86410667 28.65265778 2.87630222 43.56892445 53.54154667 99.36668445 107.46993778 157.85870222 137.66883556 29.66414222 15.31562667 59.87783111 24.43491555 89.20405334 24.00483555 28.3648-0.41528889 56.49294222-9.98968889 83.22389333-31.93400888 23.65098667-19.41048889 46.23587555-48.38741333 67.03104-89.0117689 5.13934222-10.02040889 17.39889778-13.95825778 27.37493333-8.79388444 9.98058667 5.16323555 13.89795555 17.47626667 8.75747556 27.49781334-23.52241778 45.95598222-49.63441778 79.19160889-77.37457778 101.96195555z"  horiz-adv-x="1024" />

    
    <glyph glyph-name="left" unicode="&#58901;" d="M399.13500001 384.247l292.15499999-292.159c12.28-12.27 12.28-32.186 0-44.457-12.27-12.28-32.186-12.28-44.457 0l-314.388 314.388c-12.28 12.27-12.28 32.186 0 44.457l314.388 314.387c6.136 6.14 14.183 9.211 22.228 9.211s16.092-3.071 22.228-9.211c12.28-12.27 12.28-32.186 0-44.457l-292.155-292.16z"  horiz-adv-x="1024" />

    
    <glyph glyph-name="statistics" unicode="&#59629;" d="M146.55678638 18.063442280000004V777.93208384A28.0918125 28.0918125 0 0 1 118.41534094 805.875 28.38960598 28.38960598 0 0 1 90.125 777.93208384v-783.19576484c0-9.18195282 4.46689572-17.32162967 11.36576899-22.38411237a28.68739866 28.68739866 0 0 1 21.83815832-10.22422879h930.95075829a28.0918125 28.0918125 0 0 1 28.48886939 27.99254828 28.53850232 28.53850232 0 0 1-28.48886939 27.94291617H146.55678638z m581.63949096 225.67751258a28.63776654 28.63776654 0 0 0-24.61755981 7.79225126L491.99674332 461.37805399l-211.63160633-209.84484787a28.83629498 28.83629498 0 0 0-40.10279892-0.04963212 27.94291616 27.94291616 0 0 0 0 39.80500708l227.11684543 225.18119064a28.63776654 28.63776654 0 0 0 24.61755982 7.79225126 28.63776654 28.63776654 0 0 0 24.61756064-7.79225126l211.58197338-209.84484786 211.58197422 209.84484786a28.83629498 28.83629498 0 0 0 40.10279891 0.04963212 27.94291616 27.94291616 0 0 0 0-39.80500708l-227.06721331-225.18119065a28.63776654 28.63776654 0 0 0-24.61755982-7.79225125z"  horiz-adv-x="1204" />

    
    <glyph glyph-name="jiantou" unicode="&#58897;" d="M1030.058667 302.933333L813.738667 86.613333A85.333333 85.333333 0 1 1 934.4-34.133333l361.984 361.984a85.077333 85.077333 0 0 1 0 120.661333L934.4 810.666667a85.333333 85.333333 0 0 1-120.661333-120.661334L1029.973333 473.6H162.133333a85.333333 85.333333 0 1 1 0-170.666667h868.010667z"  horiz-adv-x="1365" />

    
    <glyph glyph-name="appStore" unicode="&#58880;" d="M261.11533203 558.1412109400001c-27.48339844 0-49.76982422 22.28642578-49.76982422 49.80761718 0 27.44472656 22.28730469 49.74960937 49.76982422 49.74960938 27.55986328 0 49.84628906-22.30488281 49.84628906-49.74960938 0-27.52119141-22.28642578-49.80761719-49.84628906-49.80761718z m498.11660156 0c-27.55986328 0-49.84716797 22.28642578-49.84716796 49.80761718 0 27.44472656 22.28730469 49.74960937 49.84716796 49.74960938 27.44384766 0 49.76982422-22.30488281 49.76982422-49.74960938 0-27.52119141-22.32421875-49.80761719-49.76982422-49.80761718z m99.61699219-622.5600586H161.50097656c-54.81298828 0-99.50097656 44.68886719-99.50097656 99.57744141v697.27148438C62 787.39423828 106.68798828 832.08398438 161.50097656 832.08398438h697.34794922c54.92724609 0 99.5765625-44.68710937 99.5765625-99.65478516v-697.27148438c0-54.88769531-44.64931641-99.5765625-99.5765625-99.5765625z m49.73027344 796.84804688c0 27.50273437-22.40332031 49.79003906-49.73027344 49.79003906H161.50097656c-27.36914063 0-49.76982422-22.28730469-49.76982422-49.79003906v-697.27148438c0-27.40605469 22.40244141-49.77070312 49.76982422-49.77070312h697.34794922c27.32695312 0 49.73027344 22.36376953 49.73027344 49.77070312v697.27148438zM510.15517578 334.00429687999997c-150.96269531 0-273.8671875 122.86494141-273.8671875 273.94453124 0 13.77949219 11.12431641 24.92314453 24.82734375 24.92314454 13.77949219 0 24.90292969-11.14365234 24.90292969-24.92314454 0-123.63398437 100.53984375-224.13515625 224.13691406-224.13515625 123.63398437 0 224.13427734 100.50117187 224.13427734 224.13515625 0 13.77949219 11.16210938 24.92314453 24.94335938 24.92314454 13.66435547 0 24.82646484-11.14365234 24.82646484-24.92314454 0-151.07958984-122.90273437-273.94453125-273.90410156-273.94453125z"  horiz-adv-x="1024" />

    
    <glyph glyph-name="tiexinfuwux" unicode="&#58929;" d="M512 894.4C230.4 894.4 1.6 665.6 1.6 384S230.4-126.4 512-126.4c281.6 0 510.4 228.8 510.4 510.4S793.6 894.4 512 894.4z m0-966.4C259.2-72 56 131.2 56 384S259.2 840 512 840 968 636.8 968 384 764.8-72 512-72zM771.2 419.2v-22.4c0-84.8-52.8-153.6-128-168-32-6.4-54.4-35.2-54.4-67.2V112h46.4v48c0 11.2 8 20.8 17.6 22.4 96 19.2 163.2 107.2 163.2 212.8v22.4h-44.8zM382.4 227.2c-75.2 14.4-128 84.8-128 169.6v22.4H208v-22.4c0-107.2 68.8-195.2 164.8-212.8 9.6-1.6 17.6-11.2 17.6-22.4V112h46.4v48c0 32-22.4 60.8-54.4 67.2zM604.8 659.2c-35.2 0-70.4-16-92.8-43.2-22.4 25.6-56 43.2-92.8 43.2-62.4 0-112-49.6-112-112 0-78.4 68.8-131.2 174.4-227.2l30.4-27.2 30.4 27.2c105.6 96 174.4 148.8 174.4 227.2 0 62.4-49.6 112-112 112z m-62.4-278.4c-9.6-8-19.2-17.6-28.8-25.6-9.6 9.6-20.8 19.2-30.4 27.2-86.4 78.4-128 116.8-128 164.8 0 38.4 28.8 67.2 67.2 67.2 20.8 0 43.2-9.6 57.6-27.2l32-43.2 35.2 41.6c14.4 16 36.8 27.2 57.6 27.2 38.4 0 67.2-28.8 67.2-67.2-1.6-46.4-43.2-86.4-129.6-164.8z"  horiz-adv-x="1024" />

    
    <glyph glyph-name="stop" unicode="&#58933;" d="M512-55.29600000000005c-59.264 0-116.864 11.648-171.008 34.56-52.352 22.144-99.328 53.76-139.648 94.08S129.28 160.64 107.264 212.99199999999996c-22.912 54.144-34.56 111.744-34.56 171.008s11.648 116.864 34.56 171.008c22.144 52.352 53.76 99.328 94.08 139.648s87.296 72.064 139.648 94.08c54.144 22.912 111.744 34.56 171.008 34.56s116.864-11.648 171.008-34.56c52.352-22.144 99.328-53.76 139.648-94.08s72.064-87.296 94.08-139.648c22.912-54.144 34.56-111.744 34.56-171.008s-11.648-116.864-34.56-171.008c-22.144-52.352-53.76-99.328-94.08-139.648s-87.296-72.064-139.648-94.08c-54.144-22.912-111.744-34.56-171.008-34.56zM512 773.12C297.472 773.12 122.88 598.528 122.88 384s174.592-389.12 389.12-389.12 389.12 174.592 389.12 389.12S726.528 773.12 512 773.12zM418.048 158.20799999999997c-13.824 0-25.088 11.264-25.088 25.088V584.704c0 13.824 11.264 25.088 25.088 25.088s25.088-11.264 25.088-25.088v-401.408c0-13.824-11.136-25.088-25.088-25.088zM605.952 158.20799999999997c-13.824 0-25.088 11.264-25.088 25.088V584.704c0 13.824 11.264 25.088 25.088 25.088s25.088-11.264 25.088-25.088v-401.408c0-13.824-11.264-25.088-25.088-25.088z"  horiz-adv-x="1024" />

    
    <glyph glyph-name="shoucangjia" unicode="&#58885;" d="M942.08 539.2384V609.28a102.4 102.4 0 0 1-102.4 102.4H522.4448l-32.1536 61.44H143.36a102.4 102.4 0 0 1-102.4-102.4v-593.92a102.4 102.4 0 0 1 102.4-102.4h757.76a102.4 102.4 0 0 1 102.4 102.4V445.44a102.4 102.4 0 0 1-61.44 93.7984zM839.68 670.72a61.44 61.44 0 0 0 61.44-61.44v-61.44H608.0512l-64.3072 122.88z m122.88-593.92a61.44 61.44 0 0 0-61.44-61.44H143.36a61.44 61.44 0 0 0-61.44 61.44V670.72a61.44 61.44 0 0 0 61.44 61.44h322.1504l117.76-225.28H901.12a61.44 61.44 0 0 0 61.44-61.44z"  horiz-adv-x="1024" />

    
    <glyph glyph-name="bianji" unicode="&#59004;" d="M306.41152 184.6784c0-12.0832 0-18.1248 6.0416-24.17664s12.0832-6.0416 18.13504-6.0416h6.0416l163.15392 42.30144 422.98368 423.00416c18.1248 18.1248 30.21824 48.34304 0 78.55104l-60.416 60.416c-30.21824 30.208-60.416 30.208-90.64448-6.0416L348.71296 341.79072z m495.50336 531.7632c6.0416 6.0416 18.1248 6.0416 24.17664 0l42.26048-42.2912c6.0416-6.0416 6.0416-18.13504 0-24.17664l-42.30144-42.30144-66.46784 66.46784zM717.32224 631.808l66.46784-66.46784L487.69024 269.312l-66.46784 66.46784zM384.96256 293.44768l60.416-60.416-78.55104-18.1248z m513.6384 193.37216c-24.1664 0-36.25984-12.0832-36.25984-24.17664v-386.73408c0-18.1248-18.1248-36.25984-36.2496-36.25984H179.51744c-18.13504 0-36.25984 18.1248-36.25984 36.25984V698.3168c0 18.13504 18.1248 36.25984 36.25984 36.25984h422.98368c12.0832 0 24.17664 12.0832 24.17664 30.208s-12.0832 30.21824-30.21824 30.21824H173.4656c-48.34304 0-90.64448-42.30144-90.64448-90.64448v-640.53248c0-48.34304 42.30144-90.64448 90.64448-90.64448h664.70912c48.34304 0 90.64448 42.30144 90.64448 90.64448V456.61184c0 18.1248-12.0832 30.208-30.21824 30.208z m0 0"  horiz-adv-x="1024" />

    
    <glyph glyph-name="unknown" unicode="&#59480;" d="M877.44 622.18666667c6.4-6.4 10.02666667-15.04 10.02666667-24.10666667V-59.73333333000005c0-18.88-15.25333333-34.13333333-34.13333334-34.13333334H170.66666667c-18.88 0-34.13333333 15.25333333-34.13333334 34.13333334V827.73333333c0 18.88 15.25333333 34.13333333 34.13333334 34.13333334h453.01333333c9.06666667 0 17.81333333-3.62666667 24.21333333-10.02666667l229.54666667-229.65333333zM808.74666667 582.4L608 783.1466666700001V582.4h200.74666667zM394.66666667 344.53333333c0-5.76 4.69333333-10.13333333 10.45333333-10.13333333h34.56c5.76 0 10.45333333 4.48 10.45333333 10.02666667 0 30.08 27.52 55.04 61.86666667 55.04s61.86666667-24.96 61.86666667-54.93333334c0-26.98666667-22.4-50.34666667-52.58666667-54.29333333-20.58666667-2.98666667-36.8-21.65333333-37.01333333-42.77333333v-34.13333334c0-5.86666667 4.8-10.66666667 10.66666666-10.66666666h34.13333334c5.86666667 0 10.66666667 4.8 10.66666666 10.66666666v13.01333334c0 6.4 4.26666667 12.26666667 10.34666667 14.18666666 47.57333333 15.36 80 57.6 79.25333333 105.49333334-0.85333333 59.2-52.48 107.52-115.73333333 108.37333333-65.49333333 0.74666667-118.93333333-48.64-118.93333333-109.86666667z m117.33333333-242.13333333c18.8512 0 34.13333333 15.28213333 34.13333333 34.13333333 0 18.8512-15.28213333 34.13333333-34.13333333 34.13333334-18.8512 0-34.13333333-15.28213333-34.13333333-34.13333334 0-18.8512 15.28213333-34.13333333 34.13333333-34.13333333z"  horiz-adv-x="1024" />

    
    <glyph glyph-name="menu" unicode="&#59001;" d="M928 832h-832a32 32 0 0 1-32-32v-64a32 32 0 0 1 32-32h832a32 32 0 0 1 32 32v64a32 32 0 0 1-32 32z m0-768h-832a32 32 0 0 1-32-32v-64a32 32 0 0 1 32-32h832a32 32 0 0 1 32 32v64a32 32 0 0 1-32 32z m0 384h-832a32 32 0 0 1-32-32v-64a32 32 0 0 1 32-32h832a32 32 0 0 1 32 32v64a32 32 0 0 1-32 32z"  horiz-adv-x="1024" />

    
    <glyph glyph-name="excel" unicode="&#58935;" d="M868.80711111 538.5102222200001H723.39911111v-89.088h145.408v89.088z m0-114.46044444H723.39911111v-90.90844445h145.408v90.90844445z m0 229.03466667H723.39911111v-89.088h145.408v89.088z m0-452.49422223H723.39911111v-90.90844444h145.408v90.90844444z m67.24266667 543.28888889H587.20711111c-3.64088889 0-7.28177778 0-10.92266666-1.82044444v96.256l-517.91644445-103.53777778v-703.26044444l516.096-101.71733334v92.61511111c3.64088889-1.82044445 7.28177778-1.82044445 10.92266667-1.82044444h348.84266666c18.20444445 0 30.94755555 14.56355555 30.94755556 32.65422222V711.22488889c1.70666667 18.09066667-12.74311111 32.65422222-29.12711111 32.65422222zM407.32444445 233.24444444999995l-61.78133334 3.64088888-47.21777778 118.10133334-50.85866666-110.81955556-58.14044445 3.64088889 74.52444445 134.48533333-67.24266667 147.22844445 58.14044445 3.64088889 39.936-110.81955556h7.28177777l43.57688889 118.10133334 61.78133334 3.64088888-78.16533334-156.21688888L407.32444445 233.24444444999995z m519.6231111-172.6008889H574.464v49.03822223h118.10133333v90.90844444H574.464v20.02488889h118.10133333v89.088H574.464v23.66577778h118.10133333v90.90844444H574.464v25.48622222h118.10133333v89.088H574.464v23.66577778h118.10133333v89.088H574.464v50.85866667h352.48355555v-641.82044445z m-58.14044444 248.94577778H723.39911111v-89.088h145.408v89.088z m0 0"  horiz-adv-x="1024" />

    
    <glyph glyph-name="image" unicode="&#58936;" d="M360.33422222 535.66577778c0-25.25866667-8.87466667-46.76266667-26.51022222-64.512-17.74933333-17.74933333-39.13955555-26.51022222-64.512-26.51022223-25.25866667 0-46.76266667 8.87466667-64.512 26.51022223-17.74933333 17.74933333-26.51022222 39.13955555-26.51022222 64.512 0 25.25866667 8.87466667 46.76266667 26.51022222 64.512 17.74933333 17.74933333 39.13955555 26.51022222 64.512 26.51022222 25.25866667 0 46.76266667-8.87466667 64.512-26.51022222 17.63555555-17.74933333 26.51022222-39.25333333 26.51022222-64.512z m485.376-182.04444445v-212.42311111H178.28977778v91.02222223L329.95555555 384l75.88977778-75.88977778L648.53333333 550.7982222200001l197.17688889-197.17688889z m45.51111111 333.824H132.77866667c-4.096 0-7.62311111-1.47911111-10.69511112-4.43733333-2.95822222-2.95822222-4.55111111-6.59911111-4.43733333-10.69511111v-576.512c0-4.096 1.47911111-7.62311111 4.43733333-10.69511111 2.95822222-2.95822222 6.59911111-4.55111111 10.69511112-4.55111111h758.55644444c4.096 0 7.62311111 1.47911111 10.69511111 4.55111111 2.95822222 2.95822222 4.55111111 6.59911111 4.55111111 10.69511111V672.19911111c0 4.096-1.47911111 7.62311111-4.55111111 10.69511111s-6.71288889 4.55111111-10.80888889 4.55111111z m75.88977778-15.24622222v-576.512c0-20.82133333-7.39555555-38.68444445-22.30044444-53.58933333-14.90488889-14.90488889-32.65422222-22.30044445-53.58933334-22.30044445H132.77866667c-20.82133333 0-38.68444445 7.39555555-53.58933334 22.30044445-14.90488889 14.90488889-22.30044445 32.768-22.30044444 53.58933333V672.19911111c0 20.82133333 7.39555555 38.68444445 22.30044444 53.58933334 14.90488889 14.90488889 32.65422222 22.30044445 53.58933334 22.30044444h758.55644444c20.82133333 0 38.68444445-7.39555555 53.58933334-22.30044444 14.79111111-14.79111111 22.18666667-32.65422222 22.18666666-53.58933334z m0 0"  horiz-adv-x="1024" />

    
    <glyph glyph-name="ppt" unicode="&#58938;" d="M800.88177778 504.03555555c-4.55111111 72.36266667-63.26044445 135.62311111-135.62311111 135.62311112v-140.17422222c45.28355555 4.55111111 90.45333333 4.55111111 135.62311111 4.5511111z m0 0M932.06755555 70.08711111000002h-339.05777777v85.90222222h248.60444444v40.73244445H593.00977778V250.88h248.60444444v40.73244445H593.00977778v63.26044444c40.73244445-13.53955555 85.90222222-13.53955555 122.08355555 13.53955556 40.73244445 22.64177778 58.70933333 67.81155555 63.26044445 112.98133333H642.73066667V617.01688889c-18.09066667-4.55111111-31.63022222-8.98844445-49.72088889-8.98844444v103.99288888h339.05777777v-641.93422222zM362.496 350.32177778000005c-22.64177778-8.98844445-49.72088889-8.98844445-76.8-8.98844445v-122.08355555c-18.09066667 0-40.73244445 4.55111111-63.26044445 4.55111111v339.05777778c54.272-4.55111111 122.08355555 22.64177778 171.80444445-18.09066667 45.056-58.82311111 31.51644445-158.26488889-31.744-194.44622222zM963.69777778 702.91911111c4.55111111 22.64177778-18.09066667 45.16977778-40.73244445 40.73244444h-329.95555555v94.89066667h-58.70933333c-158.15111111-27.07911111-316.416-54.272-474.56711112-85.90222222v-736.82488889c158.15111111-27.07911111 311.86488889-54.272 470.12977778-85.90222222h63.26044444v103.99288889h307.31377778c18.09066667 0 36.18133333 0 54.272 8.98844444 8.98844445 27.07911111 8.98844445 49.72088889 8.98844445 72.36266667V702.91911111z m0 0M285.696 504.03555555v-103.99288888c22.64177778 4.55111111 45.16977778 0 58.70933333 22.64177778 8.98844445 22.64177778 8.98844445 49.72088889 0 67.81155555-13.53955555 18.09066667-40.73244445 13.53955555-58.70933333 13.53955555z m0 0"  horiz-adv-x="1024" />

    
    <glyph glyph-name="word" unicode="&#58941;" d="M964.608 705.5360000000001c2.27555555 23.43822222-16.04266667 41.75644445-39.936 39.48088889-110.25066667 1.82044445-220.84266667 0-331.54844445 0.45511111v82.60266667h-61.09866666c-158.37866667-27.98933333-316.87111111-55.06844445-475.24977778-82.60266667v-722.83022222c157.46844445-27.53422222 315.05066667-53.70311111 472.51911111-82.71644445h64.73955556v82.71644445c103.31022222 0 206.62044445 0 309.93066667-0.45511111 17.408 0.91022222 37.20533333-0.45511111 52.33777777 10.12622222 11.94666667 18.31822222 8.76088889 41.75644445 10.12622223 62.464-1.82044445 203.88977778 0.45511111 407.32444445-1.82044445 610.75911111zM401.63555555 243.59822222000003c-17.408-8.76088889-43.12177778 0.45511111-63.37422222-0.91022222-13.76711111 68.38044445-29.80977778 136.41955555-41.75644444 204.8-11.94666667-66.56-27.98933333-132.66488889-41.75644444-199.33866667-19.79733333 0.91022222-39.936 2.27555555-59.73333334 3.64088889-17.408 90.90844445-37.20533333 180.90666667-53.248 272.27022223 17.408 0.91022222 35.38488889 1.36533333 53.248 2.27555555 10.58133333-65.64977778 22.528-131.29955555 32.19911111-196.94933333l44.032 202.52444444c19.79733333 0.91022222 39.02577778 1.82044445 58.82311111 3.18577778 13.76711111-69.85955555 27.98933333-139.15022222 42.66666667-208.896 11.94666667 71.68 24.80355555 143.24622222 37.20533333 214.92622222 20.70755555 0.91022222 41.30133333 1.82044445 62.00888889 3.18577778-24.34844445-100.01066667-45.056-201.04533333-70.31466667-300.71466667z m532.70755556-190.12266667H593.57866667v82.71644445h268.62933333v41.30133333H593.57866667v51.88266667h268.62933333v41.30133333H593.57866667V322.55999999999995h268.62933333v41.30133333H593.57866667v51.88266667h268.62933333v41.30133333H593.57866667V508.01777778h268.62933333v41.30133333H593.57866667v51.42755556h268.62933333v41.30133333H593.57866667v72.59022222h340.76444444v-661.16266667z m0 0"  horiz-adv-x="1024" />

    
    <glyph glyph-name="zip" unicode="&#58942;" d="M482.53155555 308.90666667000005h58.9368889v-58.93688889h-58.9368889zM861.07022222 839.11111111H162.92977778c-58.59555555 0-106.04088889-47.44533333-106.04088889-106.04088889v-698.14044444c0-58.59555555 47.44533333-106.04088889 106.04088889-106.04088889h698.14044444c58.59555555 0 106.04088889 47.44533333 106.04088889 106.04088889V733.07022222c0 58.59555555-47.44533333 106.04088889-106.04088889 106.04088889z m-290.13333333-618.60977778H453.06311111V397.312h117.87377778v-176.81066667z m0 441.91288889H512v-58.93688889h58.93688889v-58.93688888H512v-58.9368889h58.93688889v-58.93688888H512v58.93688888h-58.93688889v58.9368889H512v58.93688888h-58.93688889v58.93688889H512v58.93688889h-58.93688889v58.93688889H512v-58.93688889h58.93688889v-58.93688889z m0 0"  horiz-adv-x="1024" />

    
    <glyph glyph-name="wulianwang" unicode="&#58960;" d="M591.522874 70.756607a99.378303 99.378303 0 1 1 99.378303-99.378304 99.378303 99.378303 0 0 1-99.378303 99.378304z m0-139.129625a39.751321 39.751321 0 1 0 39.751322 39.751321 39.751321 39.751321 0 0 0-39.751322-39.751321zM909.533445 418.580668a109.51489 109.51489 0 0 1-90.831769-48.496612L581.585044 420.766991a154.235127 154.235127 0 0 1-19.875661 74.732484l221.017347 175.502084a87.452907 87.452907 0 0 1 47.304072-13.912963A89.440473 89.440473 0 1 1 740.590329 746.529069a87.055394 87.055394 0 0 1 5.167672-29.813491l-222.408643-175.303327A157.812746 157.812746 0 0 1 422.579759 577.585953a160.992851 160.992851 0 0 1-51.080448-8.546534l-136.347032 150.259995a112.694996 112.694996 0 0 1 18.484364 62.012061 114.483805 114.483805 0 1 1-62.807088-101.962139L318.630053 537.834632a159.005285 159.005285 0 0 1-18.484364-221.216103L223.823152 222.209141A147.676159 147.676159 0 0 1 154.25834 239.699722a149.266212 149.266212 0 1 1 115.875101-55.453093L346.058465 279.451044A157.613989 157.613989 0 0 1 422.579759 259.575383a159.005285 159.005285 0 0 1 148.471185 102.359652L800.217311 312.842153v-3.577618a109.316134 109.316134 0 1 1 109.316134 109.316133zM84.693527 781.311475A54.658067 54.658067 0 1 0 139.351594 726.653408 54.658067 54.658067 0 0 0 84.693527 781.311475zM830.030802 776.34256A29.813491 29.813491 0 1 0 800.217311 746.529069 29.813491 29.813491 0 0 0 830.030802 776.34256z m-675.772462-775.150766a89.440473 89.440473 0 1 0 89.440473 89.440473A89.63923 89.63923 0 0 0 154.25834 1.191794zM422.579759 319.202365a99.378303 99.378303 0 1 0 99.378303 99.378303 99.378303 99.378303 0 0 0-99.378303-99.378303z m486.953686-59.626982a49.689152 49.689152 0 1 0 49.689151 49.689152 49.689152 49.689152 0 0 0-49.689151-49.689152z"  horiz-adv-x="1024" />

    
    <glyph glyph-name="addFileFolder" unicode="&#59025;" d="M955.73333333 134.82666667v-27.62666667c0-30.50666667-24.74666667-55.36-55.36-55.36H125.76c-30.50666667 0-55.36 24.74666667-55.36 55.36V660.48c0 30.50666667 24.74666667 55.36 55.36 55.36H424.53333333l88.53333334-82.98666667h354.13333333c48.64 0 88.53333333-37.33333333 88.53333333-82.98666666v-415.04zM513.06666667 494.50666667c-22.93333333 0-41.49333333-18.56-41.49333334-41.49333334v-82.98666666h-82.98666666c-22.93333333 0-41.49333333-18.56-41.49333334-41.49333334s18.56-41.49333333 41.49333334-41.49333333h82.98666666v-82.98666667c0-22.93333333 18.56-41.49333333 41.49333334-41.49333333s41.49333333 18.56 41.49333333 41.49333333v82.98666667h82.98666667c22.93333333 0 41.49333333 18.56 41.49333333 41.49333333s-18.56 41.49333333-41.49333333 41.49333334h-82.98666667v82.98666666c0 22.93333333-18.56 41.49333333-41.49333333 41.49333334z"  horiz-adv-x="1024" />

    
    <glyph glyph-name="dashuju" unicode="&#58921;" d="M627.2 716.8C578.56 716.8 537.6 757.76 537.6 806.4S578.56 896 627.2 896 716.8 855.04 716.8 806.4 675.84 716.8 627.2 716.8z m0 128c-20.48 0-38.4-17.92-38.4-38.4S606.72 768 627.2 768 665.6 785.92 665.6 806.4 647.68 844.8 627.2 844.8zM960 128c-48.64 0-89.6 40.96-89.6 89.6s40.96 89.6 89.6 89.6 89.6-40.96 89.6-89.6-40.96-89.6-89.6-89.6z m0 128c-20.48 0-38.4-17.92-38.4-38.4s17.92-38.4 38.4-38.4 38.4 17.92 38.4 38.4-17.92 38.4-38.4 38.4zM524.8-128c-48.64 0-89.6 40.96-89.6 89.6s40.96 89.6 89.6 89.6 89.6-40.96 89.6-89.6-40.96-89.6-89.6-89.6z m0 128c-20.48 0-38.4-17.92-38.4-38.4s17.92-38.4 38.4-38.4 38.4 17.92 38.4 38.4-17.92 38.4-38.4 38.4zM89.6 76.8C40.96 76.8 0 117.76 0 166.4S40.96 256 89.6 256 179.2 215.04 179.2 166.4 138.24 76.8 89.6 76.8z m0 128c-20.48 0-38.4-17.92-38.4-38.4S69.12 128 89.6 128 128 145.92 128 166.4 110.08 204.8 89.6 204.8zM166.4 537.6C117.76 537.6 76.8 578.56 76.8 627.2S117.76 716.8 166.4 716.8 256 675.84 256 627.2 215.04 537.6 166.4 537.6z m0 128C145.92 665.6 128 647.68 128 627.2S145.92 588.8 166.4 588.8 204.8 606.72 204.8 627.2 186.88 665.6 166.4 665.6zM169.6768 575.0784l45.3632 23.7568 305.2544-582.784-45.3376-23.7568zM118.0672 118.2208l24.4992 44.928 325.888-177.7152-24.5248-44.9536zM91.008 227.6352L585.984 777.4976l38.0672-34.2528L129.0752 193.3824zM127.3344 203.8784l767.5392 27.3664 1.8176-51.1744-767.5392-27.3664zM42.112 219.3408l64.6912 347.3152 50.3296-9.3952L92.416 209.9712zM198.4256 708.1216l381.696 117.504 15.104-48.9472L213.504 659.2zM534.7328 28.3904l82.816 717.1328 50.8672-5.8624-82.816-717.1584zM579.4816-17.536L903.424 188.672l27.4944-43.1872-323.9424-206.208zM656.384 778.0096l44.7488 24.8832 280.9344-505.7792-44.7488-24.8576zM221.2608 603.6224l23.6032 45.4144L930.816 292.352l-23.6288-45.4144z"  horiz-adv-x="1049" />

    


  </font>
</defs>
</svg>
